<svg xmlns="http://www.w3.org/2000/svg" xmlns:xlink="http://www.w3.org/1999/xlink" viewBox="0 0 16 16"><defs><linearGradient id="a" x1="1.56" y1="10.74" x2="11.47" y2="10.74" gradientUnits="userSpaceOnUse"><stop offset="0.51" stop-color="#fff"/><stop offset="0.63" stop-color="#fcfcfc"/><stop offset="0.7" stop-color="#f4f4f4"/><stop offset="0.77" stop-color="#e5e5e5"/><stop offset="0.82" stop-color="#d0d0d0"/><stop offset="0.88" stop-color="#b5b5b5"/><stop offset="0.92" stop-color="#949494"/><stop offset="0.97" stop-color="#6d6d6d"/><stop offset="1" stop-color="#515151"/></linearGradient></defs><title>Extension</title><path d="M11.88,7.11c0,3-.9,7.23-5.42,7.23S1,10.1,1,7.11H11.88Z" style="fill:gray"/><path d="M5.79,5.17c-3.12-1,.61-2.27-1-3.76C7.73,1.91,3.85,3.54,5.79,5.17Z" style="fill:#ccc"/><path d="M8.65,6.69C3.8,5.15,9.6,3.16,7.05.83,11.69,1.61,5.63,4.16,8.65,6.69Z" style="fill:#ccc"/><path d="M14.09,9.4c.06-.19.05-.52-.49-.53H11.74l.1-.85h2.68a.52.52,0,0,1,.41.19.53.53,0,0,1,.1.43A6.31,6.31,0,0,1,14.62,10a2.67,2.67,0,0,1-.87,1.17,4.31,4.31,0,0,1-1.76.51,8.61,8.61,0,0,1-1.07.06l.18-.41.19-.41s.38,0,1,0A1.8,1.8,0,0,0,14.09,9.4Z" style="fill:#999"/><path d="M11.47,7.53c0,2.66-.82,6.41-5,6.41s-5-3.75-5-6.41h9.91Z" style="fill:url(#a)"/></svg>