<svg xmlns="http://www.w3.org/2000/svg" xmlns:xlink="http://www.w3.org/1999/xlink" viewBox="0 0 16 16"><defs><linearGradient id="a" x1="4.01" y1="9.89" x2="11.38" y2="9.89" gradientUnits="userSpaceOnUse"><stop offset="0.51" stop-color="#fff"/><stop offset="0.63" stop-color="#fcfcfc"/><stop offset="0.7" stop-color="#f4f4f4"/><stop offset="0.77" stop-color="#e5e5e5"/><stop offset="0.82" stop-color="#d0d0d0"/><stop offset="0.88" stop-color="#b5b5b5"/><stop offset="0.92" stop-color="#949494"/><stop offset="0.97" stop-color="#6d6d6d"/><stop offset="1" stop-color="#515151"/></linearGradient></defs><title>Extension</title><rect width="16.03" height="16.03" style="fill:#3f2500"/><path d="M11.69,7.19c0,2.23-.68,5.38-4,5.38s-4-3.15-4-5.38h8.08Z" style="fill:#adadad"/><path d="M7.15,5.74C4.84,5,7.61,4.06,6.39,3,8.6,3.32,5.71,4.54,7.15,5.74Z" style="fill:#ededed"/><path d="M9.28,6.88C5.67,5.73,10,4.25,8.09,2.52,11.54,3.1,7,5,9.28,6.88Z" style="fill:#ededed"/><path d="M13.33,8.9c.05-.15,0-.39-.36-.4H11.58l.08-.63h2A.36.36,0,0,1,14,8a.35.35,0,0,1,.08.31,4.69,4.69,0,0,1-.3,1,2.08,2.08,0,0,1-.65.87,3.08,3.08,0,0,1-1.31.38,7.91,7.91,0,0,1-.8.05l.14-.31.14-.3s.28,0,.71,0A1.33,1.33,0,0,0,13.33,8.9Z" style="fill:#b7b7b7"/><path d="M11.38,7.51c0,2-.61,4.76-3.68,4.76S4,9.48,4,7.51h7.37Z" style="fill:url(#a)"/></svg>